<mxfile host="app.diagrams.net" modified="2023-10-02T09:08:23.144Z" agent="Mozilla/5.0 (Windows NT 10.0; Win64; x64) AppleWebKit/537.36 (KHTML, like Gecko) Chrome/117.0.0.0 Safari/537.36" version="22.0.0" etag="A1iwg-eCwLMEbZbhtYAs" type="github">
  <diagram name="페이지-1" id="8X041bViFHwVCEYE7JP_">
    <mxGraphModel>
      <root>
        <mxCell id="0" />
        <mxCell id="1" parent="0" />
      </root>
    </mxGraphModel>
  </diagram>
</mxfile>
